HIERARCHY
ROOT Reference
{
  OFFSET 0 0 0
  CHANNELS 6 Xposition Yposition Zposition Zrotation Xrotation Yrotation
  JOINT Hips
  {
    OFFSET 251.394 724.17 483.536
    CHANNELS 3 Zrotation Xrotation Yrotation
    JOINT RightUpLeg
    {
      OFFSET -0.450515 -23.4426 -1.37224
      CHANNELS 3 Zrotation Xrotation Yrotation
      JOINT RightLeg
      {
        OFFSET 112.821 0.0872427 -0.321027
        CHANNELS 3 Zrotation Xrotation Yrotation
        JOINT RightFoot
        {
          OFFSET 105.718 0.000193788 0.0213165
          CHANNELS 3 Zrotation Xrotation Yrotation
          JOINT RightToeBase
          {
            OFFSET 37.638 -0.000116272 0.00224792
            CHANNELS 3 Zrotation Xrotation Yrotation
            JOINT RightToeEnd
            {
              OFFSET 21.2112 0.114605 -0.000138184
              CHANNELS 3 Zrotation Xrotation Yrotation
              End Site
              {
                OFFSET 0 0 0
              }
            }
          }
        }
      }
    }
    JOINT LeftUpLeg
    {
      OFFSET -0.449508 23.4315 -1.37054
      CHANNELS 3 Zrotation Xrotation Yrotation
      JOINT LeftLeg
      {
        OFFSET 112.821 -0.0485242 -0.372458
        CHANNELS 3 Zrotation Xrotation Yrotation
        JOINT LeftFoot
        {
          OFFSET 105.716 0.00496094 -0.0229443
          CHANNELS 3 Zrotation Xrotation Yrotation
          JOINT LeftToeBase
          {
            OFFSET 37.639 0 0.00158905
            CHANNELS 3 Zrotation Xrotation Yrotation
            JOINT LeftToeEnd
            {
              OFFSET 21.2113 -0.125031 -0.00017438
              CHANNELS 3 Zrotation Xrotation Yrotation
              End Site
              {
                OFFSET 0 0 0
              }
            }
          }
        }
      }
    }
    JOINT Spine
    {
      OFFSET -5.01225 0.000463591 -9.60395
      CHANNELS 3 Zrotation Xrotation Yrotation
      JOINT Spine1
      {
        OFFSET 26.0222 -0.000271301 -0.000155029
        CHANNELS 3 Zrotation Xrotation Yrotation
        JOINT Spine2
        {
          OFFSET 27.173 -0.000155029 -0.000310058
          CHANNELS 3 Zrotation Xrotation Yrotation
          JOINT Spine3
          {
            OFFSET 36.3953 -0.000232544 7.75146e-005
            CHANNELS 3 Zrotation Xrotation Yrotation
            JOINT Neck
            {
              OFFSET 36.4331 0 -3.00261
              CHANNELS 3 Zrotation Xrotation Yrotation
              JOINT Head
              {
                OFFSET 23.0407 -0.000232544 -0.000310058
                CHANNELS 3 Zrotation Xrotation Yrotation
                End Site
                {
                  OFFSET 0 0 0
                }
              }
            }
            JOINT LeftShoulder
            {
              OFFSET 20.1317 6.74168 -12.6061
              CHANNELS 3 Zrotation Xrotation Yrotation
              JOINT LeftArm
              {
                OFFSET 34.2172 -5.81359e-005 7.75146e-005
                CHANNELS 3 Zrotation Xrotation Yrotation
                JOINT LeftForeArm
                {
                  OFFSET 65.4129 -0.0821605 0.0585235
                  CHANNELS 3 Zrotation Xrotation Yrotation
                  JOINT LeftHand
                  {
                    OFFSET 67.3883 0.0359667 0.0112396
                    CHANNELS 3 Zrotation Xrotation Yrotation
                    JOINT LeftHandThumb1
                    {
                      OFFSET 8.78386 2.85353 -6.05362
                      CHANNELS 3 Zrotation Xrotation Yrotation
                      JOINT LeftHandThumb2
                      {
                        OFFSET 8.25498 -0.000116272 -0.000174407
                        CHANNELS 3 Zrotation Xrotation Yrotation
                        JOINT LeftHandThumb3
                        {
                          OFFSET 7.24822 0.000310058 5.81358e-005
                          CHANNELS 3 Zrotation Xrotation Yrotation
                          JOINT LeftHandThumb4
                          {
                            OFFSET 7.0004 -3.87568e-005 -0.000310057
                            CHANNELS 3 Zrotation Xrotation Yrotation
                            End Site
                            {
                              OFFSET 0 0 0
                            }
                          }
                        }
                      }
                    }
                    JOINT LeftHandIndex1
                    {
                      OFFSET 24.0991 -1.01537 -5.40558
                      CHANNELS 3 Zrotation Xrotation Yrotation
                      JOINT LeftHandIndex2
                      {
                        OFFSET 7.26759 -0.000290679 -0.000465086
                        CHANNELS 3 Zrotation Xrotation Yrotation
                        JOINT LeftHandIndex3
                        {
                          OFFSET 7.13628 -1.93787e-005 0.000232543
                          CHANNELS 3 Zrotation Xrotation Yrotation
                          JOINT LeftHandIndex4
                          {
                            OFFSET 5.46699 9.68932e-005 -0.000387571
                            CHANNELS 3 Zrotation Xrotation Yrotation
                            End Site
                            {
                              OFFSET 0 0 0
                            }
                          }
                        }
                      }
                    }
                    JOINT LeftHandMiddle1
                    {
                      OFFSET 24.4604 -2.52837 0.918567
                      CHANNELS 3 Zrotation Xrotation Yrotation
                      JOINT LeftHandMiddle2
                      {
                        OFFSET 7.41627 -5.81359e-005 0.000116271
                        CHANNELS 3 Zrotation Xrotation Yrotation
                        JOINT LeftHandMiddle3
                        {
                          OFFSET 8.76829 3.87573e-005 -7.75142e-005
                          CHANNELS 3 Zrotation Xrotation Yrotation
                          JOINT LeftHandMiddle4
                          {
                            OFFSET 6.07588 -0.00013565 -5.81356e-005
                            CHANNELS 3 Zrotation Xrotation Yrotation
                            End Site
                            {
                              OFFSET 0 0 0
                            }
                          }
                        }
                      }
                    }
                    JOINT LeftHandRing1
                    {
                      OFFSET 22.465 -1.97467 6.3466
                      CHANNELS 3 Zrotation Xrotation Yrotation
                      JOINT LeftHandRing2
                      {
                        OFFSET 7.36666 -0.000232544 0.000387571
                        CHANNELS 3 Zrotation Xrotation Yrotation
                        JOINT LeftHandRing3
                        {
                          OFFSET 8.07624 -0.000465087 -0.000203475
                          CHANNELS 3 Zrotation Xrotation Yrotation
                          JOINT LeftHandRing4
                          {
                            OFFSET 6.04433 0.00013565 3.87571e-005
                            CHANNELS 3 Zrotation Xrotation Yrotation
                            End Site
                            {
                              OFFSET 0 0 0
                            }
                          }
                        }
                      }
                    }
                    JOINT LeftHandPinky1
                    {
                      OFFSET 19.5278 0.352933 10.4295
                      CHANNELS 3 Zrotation Xrotation Yrotation
                      JOINT LeftHandPinky2
                      {
                        OFFSET 6.16525 5.8136e-005 -0.000251921
                        CHANNELS 3 Zrotation Xrotation Yrotation
                        JOINT LeftHandPinky3
                        {
                          OFFSET 6.14448 -0.000329434 -0.00510625
                          CHANNELS 3 Zrotation Xrotation Yrotation
                          JOINT LeftHandPinky4
                          {
                            OFFSET 4.98555 0.000116272 0.000116271
                            CHANNELS 3 Zrotation Xrotation Yrotation
                            End Site
                            {
                              OFFSET 0 0 0
                            }
                          }
                        }
                      }
                    }
                  }
                }
              }
            }
            JOINT RightShoulder
            {
              OFFSET 20.1309 -6.74152 -12.6063
              CHANNELS 3 Zrotation Xrotation Yrotation
              JOINT RightArm
              {
                OFFSET 34.2171 7.75146e-005 7.75146e-005
                CHANNELS 3 Zrotation Xrotation Yrotation
                JOINT RightForeArm
                {
                  OFFSET 65.4492 0.242543 -0.176501
                  CHANNELS 3 Zrotation Xrotation Yrotation
                  JOINT RightHand
                  {
                    OFFSET 67.3888 -0.0867388 0.0597442
                    CHANNELS 3 Zrotation Xrotation Yrotation
                    JOINT RightHandThumb1
                    {
                      OFFSET 8.78307 -2.85357 -6.05302
                      CHANNELS 3 Zrotation Xrotation Yrotation
                      JOINT RightHandThumb2
                      {
                        OFFSET 8.25493 -7.75145e-005 0
                        CHANNELS 3 Zrotation Xrotation Yrotation
                        JOINT RightHandThumb3
                        {
                          OFFSET 7.24797 -0.000174408 0.000155029
                          CHANNELS 3 Zrotation Xrotation Yrotation
                          JOINT RightHandThumb4
                          {
                            OFFSET 7.00062 0 0
                            CHANNELS 3 Zrotation Xrotation Yrotation
                            End Site
                            {
                              OFFSET 0 0 0
                            }
                          }
                        }
                      }
                    }
                    JOINT RightHandIndex1
                    {
                      OFFSET 24.0991 1.01525 -5.40578
                      CHANNELS 3 Zrotation Xrotation Yrotation
                      JOINT RightHandIndex2
                      {
                        OFFSET 7.26773 7.75144e-005 0.000232543
                        CHANNELS 3 Zrotation Xrotation Yrotation
                        JOINT RightHandIndex3
                        {
                          OFFSET 7.13572 -0.000310058 3.87571e-005
                          CHANNELS 3 Zrotation Xrotation Yrotation
                          JOINT RightHandIndex4
                          {
                            OFFSET 5.46717 0 3.87572e-005
                            CHANNELS 3 Zrotation Xrotation Yrotation
                            End Site
                            {
                              OFFSET 0 0 0
                            }
                          }
                        }
                      }
                    }
                    JOINT RightHandMiddle1
                    {
                      OFFSET 24.4603 2.52899 0.918547
                      CHANNELS 3 Zrotation Xrotation Yrotation
                      JOINT RightHandMiddle2
                      {
                        OFFSET 7.41641 -0.000116272 -0.000116272
                        CHANNELS 3 Zrotation Xrotation Yrotation
                        JOINT RightHandMiddle3
                        {
                          OFFSET 8.76765 -3.87577e-005 0.000232543
                          CHANNELS 3 Zrotation Xrotation Yrotation
                          JOINT RightHandMiddle4
                          {
                            OFFSET 6.07609 -0.000193787 -0.000116271
                            CHANNELS 3 Zrotation Xrotation Yrotation
                            End Site
                            {
                              OFFSET 0 0 0
                            }
                          }
                        }
                      }
                    }
                    JOINT RightHandRing1
                    {
                      OFFSET 22.465 1.97571 6.34696
                      CHANNELS 3 Zrotation Xrotation Yrotation
                      JOINT RightHandRing2
                      {
                        OFFSET 7.36684 0.000193786 0.000155029
                        CHANNELS 3 Zrotation Xrotation Yrotation
                        JOINT RightHandRing3
                        {
                          OFFSET 8.07614 -0.000271301 0
                          CHANNELS 3 Zrotation Xrotation Yrotation
                          JOINT RightHandRing4
                          {
                            OFFSET 6.04468 0.000232543 0
                            CHANNELS 3 Zrotation Xrotation Yrotation
                            End Site
                            {
                              OFFSET 0 0 0
                            }
                          }
                        }
                      }
                    }
                    JOINT RightHandPinky1
                    {
                      OFFSET 19.5277 -0.352346 10.4296
                      CHANNELS 3 Zrotation Xrotation Yrotation
                      JOINT RightHandPinky2
                      {
                        OFFSET 6.16508 0 0.000232543
                        CHANNELS 3 Zrotation Xrotation Yrotation
                        JOINT RightHandPinky3
                        {
                          OFFSET 6.14396 -0.000155048 -0.0048834
                          CHANNELS 3 Zrotation Xrotation Yrotation
                          JOINT RightHandPinky4
                          {
                            OFFSET 4.98577 -7.75146e-005 -7.75143e-005
                            CHANNELS 3 Zrotation Xrotation Yrotation
                            End Site
                            {
                              OFFSET 0 0 0
                            }
                          }
                        }
                      }
                    }
                  }
                }
              }
            }
          }
        }
      }
    }
  }
}
MOTION
Frames:	4
Frame Time:	0.0333333
0 0 0 -90 -7.01671e-015 -180 -1.95243 -57.2775 -97.732 -153.961 -41.4199 -55.0048 2.08755 -2.26017 -136.939 -12.2665 -34.911 -2.96585 18.4079 -6.93757 33.1397 5.67796e-006 4.30582e-006 -86.4974 154.812 38.1174 -56.0242 -2.54587 2.77833 -137.184 4.03373 30.9692 6.43859 -29.3154 8.988 8.32071 2.42336e-005 -4.30153e-006 -86.4974 -0.0876387 0.493379 123.714 4.25094 2.26289 -19.4109 -0.0287302 2.71014 -14.9481 -0.803578 4.50712 -4.83057 0.533328 -2.97785 25.5649 -3.35991 -3.08126 46.0455 97.908 25.6664 -2.81998 36.3368 7.4224 77.2937 -17.2973 -3.58439 56.6885 -16.5717 -24.6743 -16.2735 -173.375 -50.1252 136.622 0.000350722 1.16846e-006 5.01166 0.000191368 0.000135212 25.796 0.000254422 -0.00125974 -0.000137455 100.441 79.0876 -71.8056 0.000213361 -0.00092575 54.6249 0.00169899 6.85633e-005 51.887 -0.00059427 -0.000500498 -0.0109585 15.4172 85.6688 19.8015 0.000305697 -0.000306045 65.9838 0.00104338 -0.000151043 28.9948 -0.000544737 -0.000285574 -0.0104277 16.1929 83.9707 32.2896 0.000599477 -0.00105014 38.67 0.00170658 0.000815837 41.1938 -0.000633566 -0.000669558 -0.00985158 20.9206 81.3875 5.33414 0.00149051 -0.000520408 45.7765 0.000470026 0.000186697 33.0125 -4.91033e-005 -5.16353e-005 -0.0109148 -88.0014 -26.1598 9.28764 -31.1545 21.1507 83.2894 0.230316 -6.45062 57.9859 60.4239 37.6597 -54.1301 173.375 50.1253 136.622 -6.17797e-005 4.55922e-005 5.00949 0.000160831 0.000159143 25.7996 -1.52587e-005 -9.15529e-005 -180 -100.432 -79.081 -71.7946 -0.000209349 0.00018598 54.6253 0.000173053 -3.40063e-005 51.8875 -9.15525e-005 -1.52588e-005 -180 -15.3539 -85.6707 19.8701 -7.33147e-005 5.57302e-005 65.9844 9.37504e-005 2.28241e-005 28.9975 1.52587e-005 3.05176e-005 -180 -16.2411 -83.9645 32.2431 -2.7003e-005 0.000236586 38.6713 9.89987e-005 -0.000228364 41.1953 -0.00459289 0.00427247 -180 -20.9122 -81.3852 5.34268 -8.91832e-005 0.000233393 45.7782 -2.05398e-005 -3.84419e-005 33.0153 4.07069e-012 -1.52588e-005 -180 
0 0 0 -90 -7.01671e-015 -180 -2.05225 -57.1264 -97.8905 -153.95 -41.69 -54.968 2.09953 -2.26487 -136.836 -12.477 -35.1931 -3.31441 18.427 -6.85822 33.3702 5.78643e-006 -3.71386e-007 -86.4974 155.022 38.1901 -56.0239 -2.54188 2.78199 -137.267 4.04228 31.2039 6.40687 -29.1956 9.03615 8.20688 2.41703e-005 -4.26424e-006 -86.4974 -0.0914581 0.492687 124.159 4.6016 2.17049 -19.3151 -0.0432425 2.62477 -14.9533 -0.816595 4.17249 -4.8157 0.853901 -2.60792 25.4241 -3.72185 -2.70062 45.7913 98.1033 25.6014 -3.13285 36.0617 7.06988 77.3131 -16.8407 -3.91627 58.0569 -16.8007 -23.9695 -17.084 -173.357 -50.1119 136.643 0.000346284 5.72573e-006 5.01502 0.000190625 0.000135832 25.7901 0.000254422 -0.00126393 -0.000137455 100.44 79.0876 -71.8057 0.000213478 -0.000928738 54.6216 0.00170015 6.76349e-005 51.8808 -0.000594302 -0.000500694 -0.01864 15.3968 85.6713 19.8214 0.00030474 -0.000308144 65.9799 0.0010434 -0.000148767 28.9916 -0.000544802 -0.00028704 -0.032693 16.169 83.9745 32.3124 0.000600343 -0.00105059 38.6678 0.00170694 0.000815646 41.1938 -0.000632011 -0.000669953 -0.032117 20.9147 81.3872 5.35091 0.00149026 -0.000518814 45.7717 0.00227088 0.00135429 33.0132 -0.000270269 -5.36696e-005 -0.0325642 -87.7502 -26.0934 9.13767 -31.0524 21.0598 83.0786 1.20898 -5.62897 59.3461 60.4495 37.335 -55.0496 173.357 50.1063 136.642 -5.99824e-005 4.35287e-005 5.02111 0.000161327 0.000158341 25.7815 -1.52605e-005 -9.15529e-005 179.999 -100.409 -79.0887 -71.7809 -0.000215188 0.000183449 54.6073 0.000172113 -3.58258e-005 51.869 -9.15582e-005 -1.52588e-005 179.979 -15.354 -85.6707 19.8701 -7.39355e-005 6.51459e-005 65.9628 9.49093e-005 2.07154e-005 28.9837 -4.57991e-005 -6.10353e-005 179.979 -16.2193 -83.9716 32.2589 -2.57887e-005 0.000237501 38.6638 9.60959e-005 -0.00023286 41.1788 -0.00305175 0.00282288 -180 -20.9053 -81.3933 5.36141 -8.80593e-005 0.00023437 45.759 -1.97065e-005 -3.92723e-005 33.0013 -5.68101e-009 -1.52588e-005 179.979 
0 0 0 -90 -7.01671e-015 -180 -2.19075 -56.9782 -98.0792 -153.91 -41.9813 -54.8752 2.12554 -2.28288 -136.713 -12.6084 -35.4717 -3.6923 18.4275 -6.7787 33.5823 5.80522e-006 -4.88406e-006 -86.4974 155.202 38.2462 -56.0908 -2.54109 2.7827 -137.283 3.98658 31.3579 6.37942 -29.0235 9.09381 8.06296 2.40984e-005 -4.15559e-006 -86.4974 -0.0955349 0.491909 124.632 5.01166 2.00427 -19.248 -0.11965 2.50501 -14.9652 -0.832312 3.75281 -4.73613 1.14712 -2.11081 25.2061 -3.93076 -2.3217 45.5323 98.377 25.5386 -3.44822 35.8087 6.59662 77.081 -16.296 -4.38973 59.6629 -16.755 -23.2323 -17.7441 -173.339 -50.0985 136.665 0.000346116 1.02218e-005 5.01839 0.000191815 0.000135556 25.7842 0.000254422 -0.00126933 -0.000137455 100.439 79.0876 -71.8056 0.000214358 -0.000927411 54.6183 0.00169939 7.03133e-005 51.8746 -0.000595188 -0.000501315 -0.0263217 15.3766 85.6738 19.8413 0.000305656 -0.000308904 65.9759 0.00104368 -0.000148305 28.9885 -0.000545721 -0.000287226 -0.0549586 16.1451 83.9783 32.3352 0.000599896 -0.001053 38.6655 0.00170677 0.000816622 41.1938 -0.000632165 -0.000670567 -0.0543827 20.8873 81.395 5.41964 0.00149126 -0.000519882 45.7669 0.00407235 0.00252209 33.0138 -0.000491 -5.39104e-005 -0.0542132 -87.4808 -26.027 8.97656 -30.9851 20.8291 82.9366 2.05372 -4.58093 60.7449 60.235 36.8538 -55.6381 173.286 50.0326 136.724 -6.11795e-005 4.45414e-005 5.03272 0.000163082 0.000158375 25.7634 -1.52621e-005 -9.15529e-005 179.998 -100.386 -79.0965 -71.7671 -0.000197304 0.000211628 54.5544 0.000176465 -2.88155e-005 51.7973 -9.15639e-005 -1.52588e-005 179.957 -15.354 -85.6707 19.8701 -8.12478e-005 4.67283e-005 65.899 9.99753e-005 2.14001e-005 28.9699 -0.000106914 -0.000137329 179.957 -16.1975 -83.9788 32.2747 -2.204e-005 0.000239075 38.6343 9.21764e-005 -0.000236111 41.1624 -0.00152588 0.0013733 -180 -20.8985 -81.4014 5.3801 -8.86802e-005 0.0002384 45.7399 -2.59892e-005 -4.45769e-005 32.9874 -1.1362e-008 -1.52588e-005 179.957 
0 0 0 -90 -7.01671e-015 -180 -2.34869 -56.8132 -98.2864 -153.873 -42.2821 -54.7431 2.16402 -2.31324 -136.581 -12.7512 -35.6766 -4.12637 18.4023 -6.6964 33.7775 5.82448e-006 -1.38866e-005 -86.4974 155.364 38.2544 -56.1834 -2.54164 2.78221 -137.272 3.84561 31.4875 6.42735 -28.5535 9.03095 8.05539 2.40348e-005 -4.00401e-006 -86.4974 -0.0995085 0.491125 125.097 5.50177 1.8422 -19.1897 -0.190164 2.40506 -14.9471 -0.836321 3.32231 -4.63651 1.46054 -1.63317 25.2444 -4.25078 -1.79814 45.2272 98.8143 25.4795 -3.75688 35.4668 6.05988 76.9298 -15.7428 -4.68294 61.1754 -16.4747 -22.6546 -18.1916 -173.283 -50.0553 136.731 0.000346871 1.17524e-005 5.03258 0.000192619 0.000134932 25.7783 0.000254421 -0.00128013 -0.000137455 100.438 79.0876 -71.8057 0.000214335 -0.000929916 54.615 0.00169891 7.0327e-005 51.8685 -0.00059351 -0.000501934 -0.0340021 15.3562 85.6763 19.8611 0.000306991 -0.000308262 65.9719 0.00104297 -0.000145328 28.9853 -0.000545786 -0.000288056 -0.0772241 16.1212 83.9821 32.358 0.0006018 -0.00105131 38.6633 0.00170625 0.00081761 41.1904 -0.00063317 -0.000670126 -0.0766481 20.8597 81.4028 5.48849 0.00149246 -0.00052105 45.7621 0.00587349 0.0036891 33.0145 -0.000710031 -5.70561e-005 -0.0758617 -87.2073 -25.934 8.73618 -30.8371 20.6049 82.6771 2.74886 -3.37689 62.2122 60.0786 36.2791 -56.1685 173.216 49.9588 136.804 -6.17981e-005 4.31491e-005 5.06633 0.000163032 0.000157115 25.7454 -1.52639e-005 -9.15529e-005 179.997 -100.33 -79.1154 -71.7335 -0.000212304 0.000194148 54.468 0.000170769 -3.62082e-005 51.7257 -9.15696e-005 -1.52588e-005 179.936 -15.354 -85.6707 19.8701 -7.55711e-005 6.29711e-005 65.7949 9.66268e-005 1.43476e-005 28.9562 -0.000168103 -0.000228882 179.936 -16.1172 -83.989 32.3363 -2.70277e-005 0.000232781 38.6049 9.88316e-005 -0.000231267 41.1223 -7.01667e-015 -7.62942e-005 -180 -20.8699 -81.421 5.43763 -9.17798e-005 0.000237547 45.6934 -2.03978e-005 -4.21467e-005 32.9734 -1.70471e-008 -1.52588e-005 179.936 
